<?xml version="1.0" ?><!DOCTYPE svg  PUBLIC '-//W3C//DTD SVG 1.1//EN'  'http://www.w3.org/Graphics/SVG/1.1/DTD/svg11.dtd'><svg height="512px" style="enable-background:new 0 0 512 512;" version="1.1" viewBox="0 0 512 512" width="512px" xml:space="preserve" xmlns="http://www.w3.org/2000/svg" xmlns:xlink="http://www.w3.org/1999/xlink"><g id="_x35_2_x2C__snowflake_x2C_christmas_x2C_holiday_x2C_winter_x2C_season"><path d="M460.188,252.379h-33.339l18.252-18.26c1.562-1.563,1.562-4.096-0.001-5.658c-1.563-1.561-4.095-1.561-5.657,0.002   l-23.905,23.916H371.71l18.252-18.26c1.562-1.563,1.562-4.096-0.001-5.658c-1.563-1.561-4.096-1.561-5.657,0.002l-23.905,23.916   h-32.054l2.156-41.449l-34.437-17.568l15.074-26.115l32.646-8.721c2.135-0.57,3.402-2.762,2.832-4.896s-2.766-3.404-4.896-2.832   l-24.931,6.66l21.899-37.939l32.669-8.75c2.134-0.572,3.4-2.766,2.829-4.898c-0.572-2.135-2.767-3.4-4.899-2.83l-24.943,6.682   l16.675-28.889c1.104-1.914,0.449-4.361-1.464-5.465c-1.914-1.105-4.36-0.449-5.464,1.465l-16.672,28.883l-6.668-24.936   c-0.571-2.135-2.771-3.402-4.897-2.832c-2.134,0.57-3.401,2.764-2.831,4.898l8.737,32.674l-21.9,37.939l-6.693-24.924   c-0.574-2.135-2.767-3.395-4.901-2.826c-2.134,0.572-3.398,2.768-2.825,4.9l8.767,32.645l-15.134,26.219l-34.488-22.369   l-33.204,21.527l-14.648-25.377l8.752-32.646c0.572-2.133-0.694-4.326-2.828-4.898c-2.133-0.58-4.327,0.693-4.899,2.826   l-6.681,24.92l-21.908-37.953l8.761-32.654c0.573-2.133-0.693-4.326-2.827-4.898c-2.134-0.568-4.328,0.691-4.9,2.826l-6.689,24.93   l-16.667-28.873c-1.104-1.914-3.551-2.57-5.464-1.465c-1.914,1.104-2.569,3.551-1.465,5.465l16.677,28.893l-24.944-6.684   c-2.133-0.576-4.327,0.693-4.899,2.828c-0.572,2.133,0.695,4.326,2.829,4.898l32.67,8.754l21.897,37.936l-24.93-6.66   c-2.135-0.572-4.327,0.699-4.896,2.832c-0.57,2.135,0.698,4.326,2.832,4.896l32.645,8.721l14.668,25.412l-35.8,18.273l2.156,41.447   h-29.222l-23.904-23.916c-1.562-1.563-4.095-1.563-5.657-0.002c-1.563,1.563-1.563,4.094-0.001,5.658l18.251,18.26H96.463   l-23.904-23.916c-1.562-1.563-4.095-1.563-5.657-0.002c-1.563,1.563-1.563,4.094-0.001,5.658l18.251,18.26h-33.34   c-2.209,0-4,1.791-4,4s1.791,4,4,4h33.332l-18.242,18.232c-1.563,1.561-1.563,4.094-0.001,5.656   c0.781,0.781,1.805,1.172,2.829,1.172c1.023,0,2.047-0.391,2.828-1.17l23.904-23.891h43.821l-18.242,18.232   c-1.563,1.561-1.563,4.094-0.001,5.656c0.781,0.781,1.805,1.172,2.829,1.172c1.023,0,2.047-0.391,2.828-1.17l23.904-23.891h29.055   l-1.987,38.203l36.609,18.686l-15.489,26.83l-32.634,8.719c-2.134,0.57-3.402,2.762-2.832,4.896   c0.569,2.135,2.761,3.402,4.896,2.832l24.918-6.656l-21.9,37.936l-32.669,8.75c-2.134,0.572-3.401,2.766-2.829,4.9   c0.571,2.133,2.766,3.398,4.898,2.828l24.944-6.682l-16.677,28.889c-1.104,1.914-0.449,4.359,1.464,5.465   c0.63,0.363,1.318,0.537,1.996,0.537c1.383,0,2.727-0.719,3.468-2.002l16.674-28.885l6.681,24.939   c0.479,1.787,2.095,2.967,3.861,2.967c0.342,0,0.691-0.045,1.038-0.139c2.134-0.57,3.4-2.764,2.829-4.898l-8.751-32.668   l21.909-37.951l6.684,24.93c0.479,1.787,2.095,2.965,3.861,2.965c0.343,0,0.691-0.043,1.038-0.137c2.134-0.572,3.4-2.766,2.828-4.9   l-8.756-32.656l15.414-26.699l32.442,21.033l33.727-21.875l15.898,27.547l-8.755,32.65c-0.571,2.135,0.694,4.328,2.828,4.9   c0.347,0.094,0.695,0.137,1.038,0.137c1.766,0,3.382-1.178,3.861-2.965l6.683-24.924l21.906,37.957l-8.748,32.656   c-0.571,2.135,0.695,4.328,2.829,4.9c0.347,0.092,0.695,0.137,1.038,0.137c1.766,0,3.382-1.18,3.861-2.967l6.677-24.926   l16.662,28.871c0.741,1.283,2.086,2.002,3.469,2.002c0.678,0,1.366-0.174,1.995-0.537c1.914-1.104,2.569-3.551,1.466-5.463   l-16.675-28.893l24.942,6.684c2.132,0.574,4.327-0.695,4.898-2.828c0.572-2.135-0.694-4.328-2.828-4.898l-32.668-8.754   l-21.895-37.938l24.94,6.66c2.131,0.57,4.326-0.699,4.896-2.832c0.57-2.135-0.698-4.328-2.832-4.896l-32.655-8.721l-15.89-27.531   l35.246-17.982l-1.987-38.203h31.888l23.904,23.891c0.78,0.779,1.804,1.17,2.827,1.17c1.024,0,2.048-0.391,2.829-1.172   c1.562-1.563,1.561-4.096-0.002-5.656l-18.242-18.232h43.822l23.904,23.891c0.78,0.779,1.804,1.17,2.827,1.17   c1.024,0,2.048-0.391,2.829-1.172c1.562-1.563,1.561-4.096-0.002-5.656l-18.242-18.232h33.331c2.209,0,4-1.791,4-4   S462.396,252.379,460.188,252.379z M26.073,247.451c-4.916,0-8.915,4.006-8.915,8.928c0,4.908,3.999,8.9,8.915,8.9   c4.924,0,8.93-3.992,8.93-8.9C35.003,251.457,30.997,247.451,26.073,247.451z M485.912,247.451c-4.915,0-8.914,4.006-8.914,8.928   c0,4.908,3.999,8.9,8.914,8.9c4.924,0,8.93-3.992,8.93-8.9C494.842,251.457,490.836,247.451,485.912,247.451z M140.53,65.482   c1.555,0,3.09-0.412,4.453-1.193c4.25-2.461,5.713-7.928,3.244-12.219c-1.608-2.736-4.566-4.436-7.719-4.436   c-1.556,0-3.096,0.412-4.454,1.193c-4.261,2.449-5.73,7.918-3.263,12.211C134.386,63.779,137.352,65.482,140.53,65.482z    M370.428,445.855c-1.56,0-3.103,0.412-4.48,1.205c-4.251,2.477-5.7,7.947-3.239,12.178c1.585,2.758,4.546,4.471,7.727,4.471   c1.562,0,3.104-0.414,4.449-1.193c4.262-2.449,5.731-7.92,3.275-12.193C376.574,447.566,373.612,445.855,370.428,445.855z    M365.968,64.295c1.351,0.775,2.887,1.188,4.441,1.188c3.178,0,6.144-1.703,7.75-4.463c2.456-4.273,0.986-9.742-3.274-12.191   c-1.357-0.781-2.9-1.193-4.461-1.193c-3.184,0-6.146,1.711-7.731,4.467C360.25,56.35,361.71,61.814,365.968,64.295z    M144.96,447.059c-1.354-0.787-2.896-1.203-4.459-1.203c-3.178,0-6.136,1.711-7.721,4.467c-2.456,4.273-0.988,9.742,3.273,12.193   c1.358,0.779,2.898,1.193,4.454,1.193h0c3.153,0,6.111-1.701,7.747-4.484C150.688,454.947,149.199,449.482,144.96,447.059z    M254.583,154.5c11.473,0,17.475-19.178,17.475-38.121c0-18.945-6.002-38.123-17.475-38.123c-11.482,0-17.489,19.178-17.489,38.123   C237.094,135.322,243.102,154.5,254.583,154.5z M254.583,355.012c-11.482,0-17.489,19.178-17.489,38.123   c0,18.943,6.007,38.121,17.489,38.121c11.473,0,17.475-19.178,17.475-38.121C272.059,374.189,266.057,355.012,254.583,355.012z    M340.569,196.15c-1.063,3.994-0.133,6.818,0.827,8.473c1.478,2.568,4.832,5.629,12.423,5.629c8.15,0,18.843-3.475,29.338-9.535   c16.391-9.482,29.994-24.277,24.278-34.215c-1.479-2.557-4.837-5.607-12.426-5.607c-8.162,0-18.853,3.471-29.334,9.521   C352.365,178.119,342.744,187.98,340.569,196.15z M168.583,313.377c1.066-4.002,0.135-6.832-0.831-8.496   c-1.479-2.559-4.834-5.607-12.419-5.607c-8.155,0-18.847,3.469-29.339,9.521c-13.302,7.697-22.917,17.555-25.092,25.725   c-1.064,3.998-0.134,6.826,0.827,8.48c1.478,2.568,4.832,5.631,12.42,5.631c8.144,0,18.837-3.475,29.341-9.533   C156.79,331.406,166.404,321.553,168.583,313.377z M125.998,200.721c10.5,6.057,21.194,9.531,29.339,9.531c0,0,0.001,0,0.001,0   c7.586,0,10.94-3.061,12.41-5.615c0.969-1.67,1.9-4.5,0.834-8.502c-2.178-8.176-11.793-18.029-25.096-25.721   c-10.486-6.051-21.178-9.52-29.333-9.52c-7.586,0-10.941,3.051-12.421,5.609C95.999,176.432,109.597,191.23,125.998,200.721z    M383.154,308.793c-10.478-6.051-21.169-9.52-29.331-9.52c-7.588,0-10.944,3.049-12.42,5.602c-0.967,1.668-1.896,4.492-0.834,8.486   c2.175,8.17,11.795,18.031,25.11,25.736c10.492,6.059,21.185,9.533,29.335,9.533c7.591,0,10.947-3.063,12.421-5.623   C413.171,333.086,399.563,318.287,383.154,308.793z"/></g><g id="Layer_1"/></svg>